<?xml version="1.0" encoding="UTF-8" standalone="no"?>
<svg
   xmlns:dc="http://purl.org/dc/elements/1.1/"
   xmlns:cc="http://creativecommons.org/ns#"
   xmlns:rdf="http://www.w3.org/1999/02/22-rdf-syntax-ns#"
   xmlns:svg="http://www.w3.org/2000/svg"
   xmlns="http://www.w3.org/2000/svg"
   xmlns:sodipodi="http://sodipodi.sourceforge.net/DTD/sodipodi-0.dtd"
   xmlns:inkscape="http://www.inkscape.org/namespaces/inkscape"
   sodipodi:docname="image-1.svg"
   inkscape:version="1.0alpha (9dee831, 2019-01-15)"
   id="svg8"
   version="1.1"
   viewBox="0 0 200.1731 86.923279"
   height="86.923279mm"
   width="200.1731mm">
  <defs
     id="defs2" />
  <sodipodi:namedview
     inkscape:window-maximized="1"
     inkscape:window-y="0"
     inkscape:window-x="0"
     inkscape:window-height="1052"
     inkscape:window-width="1920"
     fit-margin-bottom="0"
     fit-margin-right="0"
     fit-margin-left="0"
     fit-margin-top="0"
     showgrid="false"
     inkscape:document-rotation="0"
     inkscape:current-layer="layer2"
     inkscape:document-units="mm"
     inkscape:cy="583.5795"
     inkscape:cx="131.45479"
     inkscape:zoom="0.24748737"
     inkscape:pageshadow="2"
     inkscape:pageopacity="0.0"
     borderopacity="1.0"
     bordercolor="#666666"
     pagecolor="#ffffff"
     id="base" />
  <metadata
     id="metadata5">
    <rdf:RDF>
      <cc:Work
         rdf:about="">
        <dc:format>image/svg+xml</dc:format>
        <dc:type
           rdf:resource="http://purl.org/dc/dcmitype/StillImage" />
        <dc:title></dc:title>
      </cc:Work>
    </rdf:RDF>
  </metadata>
  <g
     transform="translate(-4.7772236,-33.455097)"
     style="display:inline"
     inkscape:label="back"
     id="layer2"
     inkscape:groupmode="layer">
    <rect
       y="33.455097"
       x="4.7772236"
       height="86.923279"
       width="200.1731"
       id="rect1008"
       style="fill:#ffffff;fill-opacity:1;stroke:none;stroke-width:2;stroke-linecap:round;stroke-linejoin:round;stroke-miterlimit:4;stroke-dasharray:none;stroke-opacity:1" />
  </g>
  <g
     transform="translate(-4.7772236,-33.455097)"
     style="display:inline"
     id="layer1"
     inkscape:groupmode="layer"
     inkscape:label="Layer 1">
    <g
       style="stroke-width:2.22672"
       id="g858"
       transform="matrix(0.1188219,0,0,0.1188219,18.789207,47.621067)">
      <path
         style="stroke-width:2.22672"
         id="path835"
         d="m 108.4,0 h 23 v 22.8 h 21.2 V 0 h 23 v 69 h -23 V 46 h -21 V 69 H 108.4 M 206,23 H 185.7 V 0 h 63.7 V 23 H 229 V 69 H 206 M 259.5,0 h 24.1 L 298.4,24.3 313.2,0 h 24.1 v 69 h -23 V 34.8 L 298.2,59.6 282.1,34.8 V 69 H 259.5 M 348.7,0 h 23 v 46.2 h 32.6 V 69 h -55.6"
         inkscape:connector-curvature="0" />
      <path
         style="stroke-width:2.22672"
         id="path837"
         d="M 107.6,471 74.6,100.6 H 437.4 L 404.4,470.8 255.7,512"
         fill="#e44d26"
         inkscape:connector-curvature="0" />
      <path
         style="stroke-width:2.22672"
         id="path839"
         d="M 256,480.5 V 131 H 404.3 L 376,447"
         fill="#f16529"
         inkscape:connector-curvature="0" />
      <path
         style="stroke-width:2.22672"
         id="path841"
         d="m 142,176.3 h 114 v 45.4 h -64.2 l 4.2,46.5 h 60 v 45.3 H 154.4 m 2,22.8 H 202 l 3.2,36.3 50.8,13.6 v 47.4 l -93.2,-26"
         fill="#ebebeb"
         inkscape:connector-curvature="0" />
      <path
         style="stroke-width:2.22672"
         id="path843"
         d="M 369.6,176.3 H 255.8 v 45.4 h 109.6 m -4.1,46.5 H 255.8 v 45.4 h 56 l -5.3,59 -50.7,13.6 v 47.2 l 93,-25.8"
         fill="#fff"
         inkscape:connector-curvature="0" />
    </g>
    <g
       id="g3013"
       transform="matrix(0.12674336,0,0,0.12674336,71.235891,45.529676)"
       style="opacity:1;stroke-width:2.22672;stop-opacity:1">
      <polygon
         id="polygon2989"
         points="404.321,470.819 255.778,512 107.644,470.877 74.633,100.62 437.367,100.62 "
         style="fill:#264de4;stroke-width:2.22672" />
      <polygon
         id="polygon2991"
         points="256,130.894 256,480.523 376.03,447.246 404.27,130.894 "
         style="fill:#2965f1;stroke-width:2.22672" />
      <polygon
         id="polygon2993"
         points="256,313.627 256,268.217 150.31,268.217 154.38,313.627 "
         style="fill:#ebebeb;stroke-width:2.22672" />
      <polygon
         id="polygon2995"
         points="255.843,176.305 142.132,176.305 146.26,221.716 256,221.716 256,176.305 "
         style="fill:#ebebeb;stroke-width:2.22672" />
      <polygon
         id="polygon2997"
         points="255.791,433.457 256,433.399 256,386.153 255.801,386.206 205.227,372.55 201.994,336.333 177.419,336.333 156.409,336.333 162.771,407.634 "
         style="fill:#ebebeb;stroke-width:2.22672" />
      <path
         style="stroke-width:2.22672"
         id="path2999"
         d="m 160,0 h 55 v 23 h -32 v 23 h 32 v 23 h -55 z"
         inkscape:connector-curvature="0" />
      <path
         style="stroke-width:2.22672"
         id="path3001"
         d="m 226,0 h 55 v 20 h -32 v 4 h 32 V 70 H 226 V 49 h 32 v -4 h -32 z"
         inkscape:connector-curvature="0" />
      <path
         style="stroke-width:2.22672"
         id="path3003"
         d="m 292,0 h 55 v 20 h -32 v 4 h 32 V 70 H 292 V 49 h 32 v -4 h -32 z"
         inkscape:connector-curvature="0" />
      <polygon
         id="polygon3005"
         points="319.831,221.716 315.699,268.217 255.843,268.217 255.843,313.627 311.761,313.627 306.49,372.521 255.843,386.191 255.843,433.435 348.937,407.634 349.62,399.962 360.291,280.411 361.399,268.217 369.597,176.305 255.843,176.305 255.843,221.716 "
         style="fill:#ffffff;stroke-width:2.22672" />
    </g>
    <g
       id="g909"
       transform="matrix(0.08083886,0,0,0.08083886,136.12365,57.894903)"
       style="stroke-width:3.27297">
      <rect
         id="rect895"
         fill="#f7df1e"
         height="630"
         width="630"
         x="0"
         y="0"
         style="stroke-width:3.27297" />
      <path
         id="path897"
         d="m 423.2,492.19 c 12.69,20.72 29.2,35.95 58.4,35.95 24.53,0 40.2,-12.26 40.2,-29.2 0,-20.3 -16.1,-27.49 -43.1,-39.3 l -14.8,-6.35 c -42.72,-18.2 -71.1,-41 -71.1,-89.2 0,-44.4 33.83,-78.2 86.7,-78.2 37.64,0 64.7,13.1 84.2,47.4 l -46.1,29.6 c -10.15,-18.2 -21.1,-25.37 -38.1,-25.37 -17.34,0 -28.33,11 -28.33,25.37 0,17.76 11,24.95 36.4,35.95 l 14.8,6.34 c 50.3,21.57 78.7,43.56 78.7,93 0,53.3 -41.87,82.5 -98.1,82.5 -54.98,0 -90.5,-26.2 -107.88,-60.54 z m -209.13,5.13 c 9.3,16.5 17.76,30.45 38.1,30.45 19.45,0 31.72,-7.61 31.72,-37.2 v -201.3 h 59.2 v 202.1 c 0,61.3 -35.94,89.2 -88.4,89.2 -47.4,0 -74.85,-24.53 -88.81,-54.075 z"
         inkscape:connector-curvature="0"
         style="stroke-width:3.27297" />
    </g>
  </g>
</svg>
